<?xml version="1.0" encoding="UTF-8" standalone="no"?><!DOCTYPE svg PUBLIC "-//W3C//DTD SVG 1.1//EN" "http://www.w3.org/Graphics/SVG/1.1/DTD/svg11.dtd"><svg width="100%" height="100%" viewBox="0 0 1064 108" version="1.1" xmlns="http://www.w3.org/2000/svg" xmlns:xlink="http://www.w3.org/1999/xlink" xml:space="preserve" xmlns:serif="http://www.serif.com/" style="fill-rule:evenodd;clip-rule:evenodd;stroke-linejoin:round;stroke-miterlimit:2;"><path d="M51.626,1.78l32.328,0l-0,56.715c-0,11.907 -1.056,20.968 -3.169,27.183c-2.112,6.215 -6.361,11.48 -12.746,15.797c-6.385,4.317 -14.562,6.476 -24.531,6.476c-10.539,-0 -18.704,-1.424 -24.496,-4.273c-5.791,-2.848 -10.265,-7.014 -13.422,-12.497c-3.157,-5.483 -5.02,-12.259 -5.59,-20.329l30.833,-4.202c0.047,4.605 0.451,8.023 1.21,10.254c0.76,2.231 2.042,4.035 3.846,5.412c1.234,0.902 2.99,1.353 5.269,1.353c3.608,0 6.254,-1.34 7.94,-4.02c1.685,-2.68 2.528,-7.197 2.528,-13.553l-0,-64.316Zm50.526,52.267c-0,-17.043 4.747,-30.311 14.241,-39.805c9.495,-9.495 22.715,-14.242 39.663,-14.242c17.375,-0 30.762,4.664 40.161,13.992c9.399,9.329 14.099,22.395 14.099,39.2c0,12.2 -2.053,22.205 -6.159,30.014c-4.107,7.809 -10.041,13.886 -17.802,18.229c-7.762,4.344 -17.434,6.516 -29.017,6.516c-11.773,-0 -21.517,-1.875 -29.231,-5.626c-7.714,-3.75 -13.969,-9.684 -18.763,-17.801c-4.795,-8.118 -7.192,-18.277 -7.192,-30.477Zm590.804,-0c0,-17.043 4.747,-30.311 14.242,-39.805c9.494,-9.495 22.715,-14.242 39.662,-14.242c17.375,-0 30.762,4.664 40.161,13.992c9.4,9.329 14.1,22.395 14.1,39.2c-0,12.2 -2.054,22.205 -6.16,30.014c-4.106,7.809 -10.04,13.886 -17.802,18.229c-7.761,4.344 -17.434,6.516 -29.017,6.516c-11.773,-0 -21.516,-1.875 -29.231,-5.626c-7.714,-3.75 -13.968,-9.684 -18.763,-17.801c-4.795,-8.118 -7.192,-18.277 -7.192,-30.477Zm-316.678,-52.267l32.329,0l-0,104.391l-32.329,-0l0,-104.391Zm206.978,0l47.923,0c9.447,0 17.078,1.282 22.893,3.845c5.816,2.564 10.622,6.243 14.42,11.038c3.798,4.794 6.551,10.372 8.26,16.733c1.709,6.362 2.564,13.103 2.564,20.223c-0,11.156 -1.27,19.808 -3.81,25.956c-2.54,6.147 -6.065,11.298 -10.574,15.452c-4.51,4.153 -9.352,6.919 -14.527,8.295c-7.073,1.899 -13.482,2.849 -19.226,2.849l-47.923,-0l0,-104.391Zm-158.089,0l98.053,0l-0,25.777l-32.898,0l-0,78.614l-32.257,-0l-0,-78.614l-32.898,0l-0,-25.777Zm-207.833,0l98.053,0l0,25.777l-32.898,0l0,78.614l-32.257,-0l0,-78.614l-32.898,0l0,-25.777Zm746.22,0l30.121,0l39.306,57.754l0,-57.754l30.406,0l0,104.391l-30.406,-0l-39.093,-57.318l0,57.318l-30.334,-0l-0,-104.391Zm-157.551,0l30.638,0l11.03,58.441l16.144,-58.441l30.529,0l16.184,58.363l11.042,-58.363l30.48,0l-23.012,104.391l-31.631,-0l-18.31,-65.725l-18.238,65.725l-31.632,-0l-23.224,-104.391Zm-671.594,52.409c-0,10.539 1.958,18.111 5.874,22.715c3.917,4.605 9.246,6.907 15.987,6.907c6.93,0 12.295,-2.254 16.092,-6.764c3.798,-4.51 5.697,-12.604 5.697,-24.282c0,-9.827 -1.982,-17.007 -5.946,-21.54c-3.964,-4.534 -9.34,-6.801 -16.128,-6.801c-6.504,0 -11.726,2.303 -15.666,6.907c-3.94,4.605 -5.91,12.224 -5.91,22.858Zm590.804,0c0,10.539 1.958,18.111 5.875,22.715c3.916,4.605 9.245,6.907 15.986,6.907c6.931,0 12.295,-2.254 16.093,-6.764c3.798,-4.51 5.697,-12.604 5.697,-24.282c-0,-9.827 -1.982,-17.007 -5.946,-21.54c-3.964,-4.534 -9.34,-6.801 -16.129,-6.801c-6.503,0 -11.725,2.303 -15.666,6.907c-3.94,4.605 -5.91,12.224 -5.91,22.858Zm-109.699,-28.768l-0,57.037l7.904,0c6.741,0 11.535,-0.747 14.384,-2.243c2.848,-1.495 5.079,-4.106 6.693,-7.832c1.614,-3.727 2.421,-9.768 2.421,-18.123c0,-11.061 -1.804,-18.632 -5.412,-22.715c-3.608,-4.083 -9.589,-6.124 -17.944,-6.124l-8.046,0Z" style="fill:#111439;fill-rule:nonzero;"/></svg>